<?xml version="1.0" encoding="UTF-8" standalone="no"?>
<svg
   height="511pt"
   viewBox="0 -10 511.98685 511"
   width="511pt"
   version="1.1"
   id="svg19"
   sodipodi:docname="whiteStar.svg"
   inkscape:version="1.1 (c68e22c387, 2021-05-23)"
   xmlns:inkscape="http://www.inkscape.org/namespaces/inkscape"
   xmlns:sodipodi="http://sodipodi.sourceforge.net/DTD/sodipodi-0.dtd"
   xmlns="http://www.w3.org/2000/svg"
   xmlns:svg="http://www.w3.org/2000/svg">
  <defs
     id="defs23" />
  <sodipodi:namedview
     id="namedview21"
     pagecolor="#ffffff"
     bordercolor="#666666"
     borderopacity="1.0"
     inkscape:pageshadow="2"
     inkscape:pageopacity="0.0"
     inkscape:pagecheckerboard="0"
     inkscape:document-units="pt"
     showgrid="false"
     inkscape:zoom="1.1051859"
     inkscape:cx="340.66667"
     inkscape:cy="340.66667"
     inkscape:window-width="1680"
     inkscape:window-height="987"
     inkscape:window-x="-8"
     inkscape:window-y="-8"
     inkscape:window-maximized="1"
     inkscape:current-layer="svg19" />
  <path
     d="M 340.53516,156.35547"
     id="path113" />
  <path
     d="m 340.53516,156.35547 0.0234,0.043 c 0,-0.0234 0,-0.0234 -0.0234,-0.043 z"
     id="path111" />
  <path
     d="m 114.59375,491.14062 c -5.60937,0 -11.17969,-1.75 -15.933594,-5.1875 -8.855468,-6.41796 -12.992187,-17.44921 -10.582031,-28.09375 L 121.01563,312.76953 9.3125,214.80859 C 1.101562,207.64063 -2.035156,196.28906 1.335938,185.90234 4.707031,175.53516 13.878906,168.19531 24.738281,167.19141 L 172.53516,153.77344 230.96875,17.027344 c 4.30859,-10.046875 14.12109,-16.535156 25.02344,-16.535156 10.90234,0 20.71484,6.488281 25.02343,16.511718 l 58.4336,136.769534 147.77344,13.41797 c 10.88281,0.98047 20.05468,8.34375 23.42578,18.71093 3.37109,10.36719 0.2539,21.73829 -7.95703,28.90625 L 390.98828,312.75 l 32.9375,145.08594 c 2.41406,10.66797 -1.72656,21.69922 -10.57812,28.09765 -8.83204,6.39844 -20.60938,6.89063 -29.91016,1.30078 L 255.99219,411.07422 128.54687,487.27734 c -4.30859,2.5586 -9.10937,3.86328 -13.95312,3.86328 z"
     id="path17"
     style="fill:#000000" />
  <path
     d="m 171.40625,156.41797 c 0,0 0,0.0234 -0.0234,0.043 z"
     id="path109" />
  <path
     d="m 255.99219,378.26562 c 4.84375,0 9.64062,1.30079 13.95312,3.85938 l 120.27735,71.9375 -31.08594,-136.94141 c -2.21875,-9.74609 1.08984,-19.92187 8.62109,-26.51562 l 105.47266,-92.5 L 333.6875,185.43359 C 323.64062,184.51562 315,178.19922 311.07422,168.94141 L 255.99219,39.894531 200.84375,168.96094 c -3.88281,9.19531 -12.52344,15.51172 -22.54688,16.42968 l -139.562495,12.67188 105.468745,92.5 c 7.55469,6.61328 10.85938,16.76953 8.6211,26.53906 l -31.0625,136.9375 120.27734,-71.91406 c 4.3086,-2.55859 9.10938,-3.85938 13.95313,-3.85938 z"
     id="path107"
     style="fill:#ffffff" />
</svg>
